<svg width="65" height="65" viewBox="0 0 65 65" fill="none" xmlns="http://www.w3.org/2000/svg">
<g filter="url(#filter0_d_707_563)">
<circle cx="32.5" cy="28.5" r="28.5" fill="white"/>
</g>
<circle cx="32.8" cy="28.8" r="22.8" fill="#FC0056"/>
<path d="M30.8125 20.6875V21.125H35.1875V20.6875C35.1875 20.1073 34.957 19.5509 34.5468 19.1407C34.1366 18.7305 33.5802 18.5 33 18.5C32.4198 18.5 31.8634 18.7305 31.4532 19.1407C31.043 19.5509 30.8125 20.1073 30.8125 20.6875ZM29.0625 21.125V20.6875C29.0625 19.6432 29.4773 18.6417 30.2158 17.9033C30.9542 17.1648 31.9557 16.75 33 16.75C34.0443 16.75 35.0458 17.1648 35.7842 17.9033C36.5227 18.6417 36.9375 19.6432 36.9375 20.6875V21.125H43.5C43.7321 21.125 43.9546 21.2172 44.1187 21.3813C44.2828 21.5454 44.375 21.7679 44.375 22C44.375 22.2321 44.2828 22.4546 44.1187 22.6187C43.9546 22.7828 43.7321 22.875 43.5 22.875H42.1805L40.525 37.372C40.4029 38.4397 39.8922 39.4251 39.0901 40.1403C38.2881 40.8555 37.2509 41.2505 36.1763 41.25H29.8238C28.7491 41.2505 27.7119 40.8555 26.9099 40.1403C26.1078 39.4251 25.5971 38.4397 25.475 37.372L23.8195 22.875H22.5C22.2679 22.875 22.0454 22.7828 21.8813 22.6187C21.7172 22.4546 21.625 22.2321 21.625 22C21.625 21.7679 21.7172 21.5454 21.8813 21.3813C22.0454 21.2172 22.2679 21.125 22.5 21.125H29.0625ZM27.2145 37.1725C27.2876 37.8129 27.5937 38.4041 28.0746 38.8333C28.5554 39.2626 29.1774 39.4999 29.822 39.5H36.1771C36.8217 39.4999 37.4437 39.2626 37.9246 38.8333C38.4054 38.4041 38.7116 37.8129 38.7846 37.1725L40.42 22.875H25.5809L27.2145 37.1725ZM30.375 25.9375C30.6071 25.9375 30.8296 26.0297 30.9937 26.1938C31.1578 26.3579 31.25 26.5804 31.25 26.8125V35.5625C31.25 35.7946 31.1578 36.0171 30.9937 36.1812C30.8296 36.3453 30.6071 36.4375 30.375 36.4375C30.1429 36.4375 29.9204 36.3453 29.7563 36.1812C29.5922 36.0171 29.5 35.7946 29.5 35.5625V26.8125C29.5 26.5804 29.5922 26.3579 29.7563 26.1938C29.9204 26.0297 30.1429 25.9375 30.375 25.9375ZM36.5 26.8125C36.5 26.5804 36.4078 26.3579 36.2437 26.1938C36.0796 26.0297 35.8571 25.9375 35.625 25.9375C35.3929 25.9375 35.1704 26.0297 35.0063 26.1938C34.8422 26.3579 34.75 26.5804 34.75 26.8125V35.5625C34.75 35.7946 34.8422 36.0171 35.0063 36.1812C35.1704 36.3453 35.3929 36.4375 35.625 36.4375C35.8571 36.4375 36.0796 36.3453 36.2437 36.1812C36.4078 36.0171 36.5 35.7946 36.5 35.5625V26.8125Z" fill="white"/>
<defs>
<filter id="filter0_d_707_563" x="0" y="0" width="65" height="65" filterUnits="userSpaceOnUse" color-interpolation-filters="sRGB">
<feFlood flood-opacity="0" result="BackgroundImageFix"/>
<feColorMatrix in="SourceAlpha" type="matrix" values="0 0 0 0 0 0 0 0 0 0 0 0 0 0 0 0 0 0 127 0" result="hardAlpha"/>
<feOffset dy="4"/>
<feGaussianBlur stdDeviation="2"/>
<feComposite in2="hardAlpha" operator="out"/>
<feColorMatrix type="matrix" values="0 0 0 0 0 0 0 0 0 0 0 0 0 0 0 0 0 0 0.25 0"/>
<feBlend mode="normal" in2="BackgroundImageFix" result="effect1_dropShadow_707_563"/>
<feBlend mode="normal" in="SourceGraphic" in2="effect1_dropShadow_707_563" result="shape"/>
</filter>
</defs>
</svg>
