<svg width="11" height="12" viewBox="0 0 11 12" fill="none" xmlns="http://www.w3.org/2000/svg">
<path d="M0.75 11.2502H10.0833M1.72183 6.69261C1.47311 6.94189 1.3334 7.27964 1.33333 7.63178V9.5002H3.21342C3.56575 9.5002 3.9035 9.3602 4.15258 9.11053L9.69425 3.56595C9.94289 3.31663 10.0825 2.97889 10.0825 2.62678C10.0825 2.27467 9.94289 1.93693 9.69425 1.68761L9.14708 1.13928C9.02369 1.01582 8.87716 0.91789 8.71589 0.851094C8.55462 0.784299 8.38177 0.749946 8.20721 0.75C8.03266 0.750054 7.85982 0.784514 7.69859 0.85141C7.53737 0.918305 7.3909 1.01632 7.26758 1.13986L1.72183 6.69261Z" stroke="#505050" stroke-width="1.5" stroke-linecap="round" stroke-linejoin="round"/>
</svg>
