<svg width="17" height="17" viewBox="0 0 17 17" fill="none" xmlns="http://www.w3.org/2000/svg">
<path opacity="0.987" fill-rule="evenodd" clip-rule="evenodd" d="M7.65958 1.12729C8.42989 1.04123 8.8857 1.04123 9.71339 1.12729C11.1785 1.34414 12.5367 2.02137 13.5915 3.06104C12.8787 3.73481 12.1753 4.41842 11.4814 5.11167C10.1526 3.98542 8.6693 3.72546 7.03164 4.33179C5.83031 4.88429 4.99376 5.77962 4.52201 7.01779C3.75111 6.44386 2.99024 5.85656 2.23976 5.25617C2.18761 5.22871 2.12804 5.21866 2.06976 5.22748C3.26189 2.92894 5.1248 1.56185 7.65851 1.12623" fill="#F44336"/>
<path opacity="0.997" fill-rule="evenodd" clip-rule="evenodd" d="M2.06765 5.22751C2.12786 5.2183 2.18488 5.22786 2.23871 5.2562C2.98919 5.85659 3.75005 6.44389 4.52096 7.01782C4.39965 7.50026 4.32318 7.99287 4.29252 8.48938C4.31873 8.96963 4.39488 9.44103 4.52096 9.90357L2.12502 11.8108C1.08165 9.63051 1.06252 7.43609 2.06765 5.22751Z" fill="#FFC107"/>
<path opacity="0.999" fill-rule="evenodd" clip-rule="evenodd" d="M13.4778 14.1207C12.7318 13.4627 11.9508 12.8456 11.1382 12.2719C11.9528 11.6967 12.4472 10.9077 12.6215 9.90466H8.62964V7.13259C10.9317 7.11347 13.2327 7.13295 15.5327 7.19103C15.969 9.56041 15.4651 11.6967 14.0208 13.6C13.849 13.7826 13.6671 13.9564 13.4778 14.1207Z" fill="#448AFF"/>
<path opacity="0.993" fill-rule="evenodd" clip-rule="evenodd" d="M4.52094 9.90454C5.39219 12.0699 6.98948 13.0807 9.31281 12.9369C9.96501 12.8614 10.5903 12.6336 11.1382 12.2718C11.9514 12.847 12.7312 13.4632 13.4778 14.1205C12.2949 15.1835 10.7866 15.8142 9.19912 15.9098C8.83845 15.9386 8.47605 15.9386 8.11538 15.9098C5.41096 15.591 3.41417 14.2247 2.125 11.8107L4.52094 9.90454Z" fill="#43A047"/>
</svg>
