<svg width="110" height="24" viewBox="0 0 110 24" fill="none" xmlns="http://www.w3.org/2000/svg">
<path d="M0 7.875V1H27V7.875H24.3V3.75H2.7V7.875H0ZM0 23V16.125H2.7V20.25H24.3V16.125H27V23H0ZM7.25625 13.375L9.88875 18.7375H11.7113L16.2 9.59375L18.0562 13.375H27V10.625H19.7437L17.1112 5.2625H15.2887L10.8 14.4062L8.94375 10.625H0V13.375H7.25625Z" fill="#7535FF"/>
<path d="M51.1548 8.63778C51.098 8.06487 50.8542 7.61979 50.4233 7.30256C49.9924 6.98532 49.4077 6.8267 48.669 6.8267C48.1671 6.8267 47.7434 6.89773 47.3977 7.03977C47.0521 7.17708 46.7869 7.36884 46.6023 7.61506C46.4223 7.86127 46.3324 8.14062 46.3324 8.45312C46.3229 8.71354 46.3774 8.94081 46.4957 9.13494C46.6188 9.32907 46.7869 9.49716 47 9.6392C47.2131 9.77651 47.4593 9.89725 47.7386 10.0014C48.018 10.1009 48.3163 10.1861 48.6335 10.2571L49.9403 10.5696C50.5748 10.7116 51.1572 10.901 51.6875 11.1378C52.2178 11.3745 52.6771 11.6657 53.0653 12.0114C53.4536 12.357 53.7543 12.7642 53.9673 13.233C54.1851 13.7017 54.2964 14.2391 54.3011 14.8452C54.2964 15.7353 54.0691 16.5071 53.6193 17.1605C53.1742 17.8092 52.5303 18.3134 51.6875 18.6733C50.8494 19.0284 49.8385 19.206 48.6548 19.206C47.4806 19.206 46.4579 19.026 45.5866 18.6662C44.7202 18.3063 44.0431 17.7737 43.5554 17.0682C43.0724 16.358 42.8191 15.4796 42.7955 14.4332H45.7713C45.8045 14.9209 45.9441 15.3281 46.1903 15.6548C46.4413 15.9768 46.7751 16.2206 47.1918 16.3864C47.6132 16.5473 48.089 16.6278 48.6193 16.6278C49.1402 16.6278 49.5923 16.5521 49.9759 16.4006C50.3641 16.2491 50.6648 16.0384 50.8778 15.7685C51.0909 15.4986 51.1974 15.1884 51.1974 14.8381C51.1974 14.5114 51.1004 14.2367 50.9062 14.0142C50.7169 13.7917 50.4375 13.6023 50.0682 13.446C49.7036 13.2898 49.2562 13.1477 48.7259 13.0199L47.142 12.6222C45.9157 12.3239 44.9474 11.8575 44.2372 11.223C43.527 10.5885 43.1742 9.7339 43.179 8.65909C43.1742 7.77841 43.4086 7.009 43.8821 6.35085C44.3603 5.69271 45.0161 5.17898 45.8494 4.80966C46.6828 4.44034 47.6297 4.25568 48.6903 4.25568C49.7699 4.25568 50.7121 4.44034 51.517 4.80966C52.3267 5.17898 52.9564 5.69271 53.4062 6.35085C53.8561 7.009 54.0881 7.77131 54.1023 8.63778H51.1548ZM58.1808 23.0909C57.7972 23.0909 57.4374 23.0601 57.1012 22.9986C56.7698 22.9418 56.4951 22.8684 56.2773 22.7784L56.9592 20.5199C57.3143 20.6288 57.6339 20.688 57.918 20.6974C58.2068 20.7069 58.4554 20.6406 58.6637 20.4986C58.8768 20.3565 59.0496 20.1151 59.1822 19.7741L59.3597 19.3125L55.4464 8.09091H58.6282L60.8867 16.1023H61.0004L63.2802 8.09091H66.4833L62.2433 20.179C62.0397 20.7661 61.7627 21.2775 61.4123 21.7131C61.0666 22.1534 60.6287 22.492 60.0984 22.7287C59.5681 22.9702 58.9289 23.0909 58.1808 23.0909ZM68.0884 4.45455H71.881L75.8867 14.2273H76.0572L80.0629 4.45455H83.8555V19H80.8725V9.53267H80.7518L76.9876 18.929H74.9563L71.1921 9.49716H71.0714V19H68.0884V4.45455ZM91.2614 19.2131C90.1581 19.2131 89.2041 18.9787 88.3991 18.5099C87.599 18.0365 86.9811 17.3783 86.5455 16.5355C86.1098 15.688 85.892 14.7055 85.892 13.5881C85.892 12.4612 86.1098 11.4763 86.5455 10.6335C86.9811 9.78598 87.599 9.12784 88.3991 8.65909C89.2041 8.18561 90.1581 7.94886 91.2614 7.94886C92.3646 7.94886 93.3163 8.18561 94.1165 8.65909C94.9214 9.12784 95.5417 9.78598 95.9773 10.6335C96.4129 11.4763 96.6307 12.4612 96.6307 13.5881C96.6307 14.7055 96.4129 15.688 95.9773 16.5355C95.5417 17.3783 94.9214 18.0365 94.1165 18.5099C93.3163 18.9787 92.3646 19.2131 91.2614 19.2131ZM91.2756 16.8693C91.7775 16.8693 92.1965 16.7273 92.5327 16.4432C92.8688 16.1544 93.1222 15.7614 93.2926 15.2642C93.4678 14.767 93.5554 14.2012 93.5554 13.5668C93.5554 12.9323 93.4678 12.3665 93.2926 11.8693C93.1222 11.3722 92.8688 10.9792 92.5327 10.6903C92.1965 10.4015 91.7775 10.2571 91.2756 10.2571C90.7689 10.2571 90.3428 10.4015 89.9972 10.6903C89.6563 10.9792 89.3982 11.3722 89.223 11.8693C89.0526 12.3665 88.9673 12.9323 88.9673 13.5668C88.9673 14.2012 89.0526 14.767 89.223 15.2642C89.3982 15.7614 89.6563 16.1544 89.9972 16.4432C90.3428 16.7273 90.7689 16.8693 91.2756 16.8693ZM101.624 12.6932V19H98.598V8.09091H101.482V10.0156H101.609C101.851 9.38116 102.256 8.87926 102.824 8.50994C103.392 8.13589 104.081 7.94886 104.891 7.94886C105.648 7.94886 106.309 8.11458 106.872 8.44602C107.436 8.77746 107.874 9.25095 108.186 9.86648C108.499 10.4773 108.655 11.2064 108.655 12.054V19H105.629V12.5938C105.634 11.9261 105.464 11.4053 105.118 11.0312C104.772 10.6525 104.296 10.4631 103.69 10.4631C103.283 10.4631 102.923 10.5507 102.611 10.7259C102.303 10.901 102.062 11.1567 101.886 11.4929C101.716 11.8243 101.628 12.2244 101.624 12.6932Z" fill="#222222"/>
</svg>
