<svg width="28" height="28" viewBox="0 0 28 28" fill="none" xmlns="http://www.w3.org/2000/svg">
<path d="M13.7086 18.2778C14.9205 18.2778 16.0828 17.7964 16.9397 16.9395C17.7967 16.0825 18.2781 14.9203 18.2781 13.7084C18.2781 12.4965 17.7967 11.3342 16.9397 10.4773C16.0828 9.62034 14.9205 9.13892 13.7086 9.13892C12.4967 9.13892 11.3345 9.62034 10.4775 10.4773C9.62058 11.3342 9.13916 12.4965 9.13916 13.7084C9.13916 14.9203 9.62058 16.0825 10.4775 16.9395C11.3345 17.7964 12.4967 18.2778 13.7086 18.2778Z" stroke="white" stroke-width="1.5" stroke-linecap="round" stroke-linejoin="round"/>
<path d="M3.42725 18.2778V9.13883C3.42725 7.62396 4.02903 6.17113 5.1002 5.09996C6.17138 4.02878 7.6242 3.427 9.13908 3.427H18.278C19.7929 3.427 21.2457 4.02878 22.3169 5.09996C23.3881 6.17113 23.9898 7.62396 23.9898 9.13883V18.2778C23.9898 19.7926 23.3881 21.2455 22.3169 22.3166C21.2457 23.3878 19.7929 23.9896 18.278 23.9896H9.13908C7.6242 23.9896 6.17138 23.3878 5.1002 22.3166C4.02903 21.2455 3.42725 19.7926 3.42725 18.2778Z" stroke="white" stroke-width="1.5"/>
<path d="M19.9917 7.43645L20.0029 7.42407" stroke="white" stroke-width="1.5" stroke-linecap="round" stroke-linejoin="round"/>
</svg>
