<svg width="28" height="28" viewBox="0 0 28 28" fill="none" xmlns="http://www.w3.org/2000/svg">
<path d="M7.99671 19.4201V11.4236M23.9898 9.13883V18.2778C23.9898 19.7926 23.3881 21.2455 22.3169 22.3166C21.2457 23.3878 19.7929 23.9896 18.278 23.9896H9.13908C7.6242 23.9896 6.17138 23.3878 5.1002 22.3166C4.02903 21.2455 3.42725 19.7926 3.42725 18.2778V9.13883C3.42725 7.62396 4.02903 6.17113 5.1002 5.09996C6.17138 4.02878 7.6242 3.427 9.13908 3.427H18.278C19.7929 3.427 21.2457 4.02878 22.3169 5.09996C23.3881 6.17113 23.9898 7.62396 23.9898 9.13883Z" stroke="white" stroke-width="1.5" stroke-linecap="round" stroke-linejoin="round"/>
<path d="M12.566 19.4202V15.7075M12.566 15.7075V11.4236M12.566 15.7075C12.566 11.4236 19.4202 11.4236 19.4202 15.7075V19.4202M7.99658 8.00793L8.00801 7.99536" stroke="white" stroke-width="1.5" stroke-linecap="round" stroke-linejoin="round"/>
</svg>
