<svg width="39" height="48" viewBox="0 0 39 48" fill="none" xmlns="http://www.w3.org/2000/svg">
<path d="M33.622 46.0623C31.0147 48.6109 28.1678 48.2085 25.4274 47.0013C22.5274 45.7672 19.8668 45.7136 16.8071 47.0013C12.9759 48.6646 10.9538 48.1817 8.66574 46.0623C-4.31793 32.5682 -2.4023 12.0186 12.3373 11.2674C15.9291 11.4552 18.4301 13.2526 20.532 13.2795C22.6604 13.3063 25.4008 11.4016 29.3917 11.6698C32.4514 11.8308 34.8725 12.8234 36.7349 15.0232C30.2165 18.9132 31.2807 27.7662 38.1184 30.583C40.255 36.1747 38.4129 42.5165 33.622 46.0623ZM20.2659 11.1065C20.2127 5.124 24.9485 0.187791 30.6422 0C31.2275 6.27757 25.0017 11.1065 20.2659 11.1065Z" fill="#94A3B8"/>
</svg>
