<svg width="25" height="25" viewBox="0 0 25 25" fill="none" xmlns="http://www.w3.org/2000/svg">
<path d="M19.7351 4.12769H4.63551C3.96224 4.12769 3.31654 4.39514 2.84046 4.87122C2.36438 5.3473 2.09692 5.993 2.09692 6.66628V17.7041C2.09692 18.3773 2.36438 19.023 2.84046 19.4991C3.31654 19.9752 3.96224 20.2427 4.63551 20.2427H19.7351C20.4083 20.2427 21.054 19.9752 21.5301 19.4991C22.0062 19.023 22.2736 18.3773 22.2736 17.7041V6.66628C22.2736 5.993 22.0062 5.3473 21.5301 4.87122C21.054 4.39514 20.4083 4.12769 19.7351 4.12769ZM4.63551 5.14312H19.7351C20.1193 5.14226 20.4896 5.28765 20.7705 5.54978C21.0515 5.81192 21.2223 6.17116 21.2481 6.55458C18.7399 7.89495 16.2216 9.22518 13.7034 10.5656C13.3632 10.78 13.0027 10.9603 12.627 11.1037C12.3324 11.1621 12.0288 11.1569 11.7364 11.0886C11.444 11.0203 11.1695 10.8905 10.9312 10.7077C9.4893 9.94614 8.04738 9.1744 6.61562 8.41283C5.45802 7.80357 4.28011 7.18415 3.12251 6.56473C3.14583 6.17951 3.31546 5.81775 3.59672 5.55348C3.87797 5.28922 4.24959 5.14242 4.63551 5.14312ZM21.2582 17.7041C21.2582 18.108 21.0977 18.4955 20.8121 18.7811C20.5264 19.0668 20.139 19.2272 19.7351 19.2272H4.63551C4.23155 19.2272 3.84413 19.0668 3.55848 18.7811C3.27284 18.4955 3.11236 18.108 3.11236 17.7041V7.71725C5.50879 8.97639 7.89507 10.2558 10.2915 11.5251C10.7195 11.7879 11.1805 11.9927 11.6623 12.1344C12.3674 12.2492 13.0902 12.1011 13.6932 11.7181C15.1656 10.9463 16.6278 10.1645 18.1002 9.39272C19.1563 8.82408 20.2022 8.27574 21.2582 7.71725V17.7041Z" fill="white"/>
</svg>
