<svg width="20" height="20" viewBox="0 0 20 20" fill="none" xmlns="http://www.w3.org/2000/svg">
<path d="M15.625 5.78126L14.8 4.82149C14.1005 4.08679 13.2588 3.5021 12.3262 3.103C11.3935 2.7039 10.3894 2.49874 9.375 2.50001C5.23438 2.50001 1.875 5.85938 1.875 10C1.875 14.1406 5.23438 17.5 9.375 17.5C10.9262 17.4999 12.4392 17.0191 13.7058 16.1237C14.9725 15.2283 15.9305 13.9623 16.448 12.5" stroke="#FC0056" stroke-miterlimit="10" stroke-linecap="round"/>
<path d="M18.125 3.80555V8.12508C18.125 8.29084 18.0591 8.44981 17.9419 8.56702C17.8247 8.68423 17.6657 8.75008 17.5 8.75008H13.1804C12.6234 8.75008 12.3445 8.07704 12.7383 7.68329L17.0582 3.36336C17.4519 2.96883 18.125 3.24852 18.125 3.80555Z" fill="#FC0056"/>
</svg>
