<svg width="23" height="23" viewBox="0 0 23 23" fill="none" xmlns="http://www.w3.org/2000/svg">
<path fill-rule="evenodd" clip-rule="evenodd" d="M8.75506 4.67363L9.35357 6.5334C9.40104 6.68047 9.44944 6.8899 9.41966 7.12912C9.37614 7.48319 9.23656 7.8186 9.01604 8.09901C8.79552 8.37941 8.50247 8.59413 8.16864 8.71989L5.66195 9.66001C5.36674 9.77072 5.0491 9.80824 4.73623 9.76935C4.42335 9.73046 4.12456 9.61633 3.86543 9.43672C3.60631 9.25711 3.39458 9.01737 3.24836 8.73804C3.10215 8.45871 3.02581 8.1481 3.02588 7.83282V6.80054C3.02588 6.23554 3.28651 5.67798 3.77984 5.33544C5.94953 3.8291 8.52827 3.0229 11.1696 3.02515C13.9155 3.02515 16.4641 3.87871 18.5612 5.33544C19.0545 5.67798 19.3152 6.23554 19.3152 6.80054V7.83282C19.3151 8.14814 19.2387 8.45876 19.0924 8.73807C18.946 9.01738 18.7342 9.25706 18.475 9.43658C18.2157 9.61611 17.9169 9.73013 17.6039 9.76888C17.291 9.80763 16.9734 9.76996 16.6782 9.65908L14.1724 8.71896C13.8387 8.59327 13.5457 8.3787 13.3252 8.09847C13.1047 7.81823 12.9651 7.48302 12.9214 7.12912C12.8916 6.8899 12.94 6.68047 12.9865 6.5334L13.586 4.67363C12.7915 4.50545 11.9817 4.42091 11.1696 4.42138C10.3412 4.42138 9.53322 4.50794 8.75412 4.67363M7.40723 5.04595C6.40141 5.3919 5.44823 5.87523 4.57476 6.4822C4.52539 6.51895 4.48563 6.56709 4.45889 6.62252C4.43215 6.67795 4.41921 6.73903 4.42117 6.80054V7.83282C4.42117 8.22004 4.80839 8.48811 5.17141 8.35221L7.67717 7.41209C7.76842 7.37748 7.84901 7.31957 7.9109 7.24411C7.9728 7.16866 8.01385 7.07831 8.02995 6.98205L8.02436 6.96158L7.40723 5.04595ZM14.3158 6.96251L14.3102 6.98298C14.3263 7.07924 14.3673 7.16959 14.4292 7.24505C14.4911 7.3205 14.5717 7.37841 14.6629 7.41302L17.1687 8.35315C17.2526 8.38457 17.3429 8.3952 17.4318 8.38412C17.5207 8.37304 17.6056 8.3406 17.6793 8.28955C17.7529 8.2385 17.8131 8.17038 17.8547 8.091C17.8963 8.01162 17.918 7.92336 17.918 7.83375V6.80054C17.9201 6.73911 17.9073 6.67809 17.8807 6.62266C17.8541 6.56724 17.8146 6.51905 17.7654 6.4822C16.8918 5.87555 15.9387 5.39254 14.9329 5.04689L14.3158 6.96251ZM11.1705 11.8791C10.4916 11.8791 9.84056 12.1488 9.36051 12.6288C8.88047 13.1089 8.61078 13.7599 8.61078 14.4388C8.61078 15.1177 8.88047 15.7688 9.36051 16.2488C9.84056 16.7289 10.4916 16.9986 11.1705 16.9986C11.8494 16.9986 12.5005 16.7289 12.9805 16.2488C13.4606 15.7688 13.7303 15.1177 13.7303 14.4388C13.7303 13.7599 13.4606 13.1089 12.9805 12.6288C12.5005 12.1488 11.8494 11.8791 11.1705 11.8791ZM10.007 14.4388C10.007 14.1302 10.1296 13.8343 10.3478 13.6161C10.566 13.3979 10.8619 13.2753 11.1705 13.2753C11.4791 13.2753 11.7751 13.3979 11.9933 13.6161C12.2115 13.8343 12.334 14.1302 12.334 14.4388C12.334 14.7474 12.2115 15.0434 11.9933 15.2616C11.7751 15.4798 11.4791 15.6023 11.1705 15.6023C10.8619 15.6023 10.566 15.4798 10.3478 15.2616C10.1296 15.0434 10.007 14.7474 10.007 14.4388Z" fill="white"/>
<path fill-rule="evenodd" clip-rule="evenodd" d="M9.30249 9.80155C10.499 9.30638 11.8432 9.30638 13.0397 9.80155L17.5216 11.6567C17.8299 11.7842 18.1032 11.9835 18.3189 12.238C18.5345 12.4925 18.6863 12.7949 18.7615 13.1199L19.6001 16.7482C19.6711 17.0553 19.6719 17.3744 19.6025 17.6817C19.533 17.9891 19.3951 18.2769 19.199 18.5235C19.0029 18.7702 18.7536 18.9694 18.4698 19.1064C18.186 19.2433 17.8749 19.3145 17.5598 19.3145H4.78245C4.46731 19.3145 4.15625 19.2433 3.87243 19.1064C3.58861 18.9694 3.33935 18.7702 3.14323 18.5235C2.94711 18.2769 2.80919 17.9891 2.73973 17.6817C2.67028 17.3744 2.67109 17.0553 2.7421 16.7482L3.57983 13.1208C3.65488 12.7957 3.80656 12.4931 4.02223 12.2384C4.2379 11.9837 4.51131 11.7843 4.81968 11.6567L9.30249 9.80155ZM12.5054 11.0926C11.651 10.7391 10.6912 10.7391 9.83678 11.0926L5.35397 12.9468C5.25121 12.9893 5.1601 13.0557 5.08821 13.1406C5.01633 13.2254 4.96575 13.3262 4.94068 13.4345L4.10202 17.0628C4.07836 17.1651 4.07808 17.2715 4.1012 17.3739C4.12431 17.4763 4.17023 17.5722 4.23554 17.6544C4.30084 17.7366 4.38385 17.803 4.47838 17.8487C4.57291 17.8944 4.67652 17.9182 4.78151 17.9183H17.5598C17.6649 17.9182 17.7686 17.8944 17.8632 17.8487C17.9578 17.8029 18.0409 17.7364 18.1062 17.6541C18.1715 17.5718 18.2174 17.4758 18.2404 17.3732C18.2635 17.2707 18.2631 17.1643 18.2393 17.0619L17.4015 13.4345C17.3765 13.3262 17.3259 13.2254 17.254 13.1406C17.1821 13.0557 17.091 12.9893 16.9882 12.9468L12.5054 11.0926Z" fill="white"/>
</svg>
